<?xml version="1.0" standalone="no"?>
<!DOCTYPE svg PUBLIC "-//W3C//DTD SVG 20010904//EN"
 "http://www.w3.org/TR/2001/REC-SVG-20010904/DTD/svg10.dtd">
<svg version="1.0" xmlns="http://www.w3.org/2000/svg"
 width="99.000000pt" height="99.000000pt" viewBox="0 0 99.000000 99.000000"
 preserveAspectRatio="xMidYMid meet">

<g transform="translate(0.000000,99.000000) scale(0.100000,-0.100000)"
fill="#000000" stroke="none">
<path d="M410 980 c-200 -35 -365 -199 -401 -400 -46 -258 133 -522 386 -569
33 -6 176 -11 327 -11 l268 0 0 263 c0 371 -21 449 -149 577 -117 117 -273
167 -431 140z m231 -261 c60 -20 66 -32 41 -84 l-21 -44 -35 14 c-67 28 -138
13 -186 -40 -21 -22 -25 -37 -25 -85 0 -48 4 -63 25 -85 48 -53 119 -68 186
-40 l35 14 22 -45 c22 -45 22 -46 2 -60 -48 -36 -152 -44 -227 -18 -141 47
-211 208 -149 337 27 56 88 111 145 131 50 18 141 20 187 5z"/>
</g>
</svg>
